<svg width="768" height="996" viewBox="0 0 768 996" fill="none" xmlns="http://www.w3.org/2000/svg">
<path opacity="0.3" fill-rule="evenodd" clip-rule="evenodd" d="M334.394 498.62C406.079 540.007 527.099 464.598 604.699 330.189C682.3 195.781 687.096 53.2701 615.412 11.883C543.727 -29.5041 422.707 45.9047 345.106 180.313C267.506 314.722 262.709 457.233 334.394 498.62ZM346.181 478.205C414.819 517.833 528.092 450.139 599.183 327.005C670.275 203.871 672.263 71.9267 603.625 32.2984C534.987 -7.32988 421.714 60.3645 350.622 183.498C279.531 306.632 277.543 438.576 346.181 478.205Z" fill="url(#paint0_linear)"/>
<path opacity="0.1" fill-rule="evenodd" clip-rule="evenodd" d="M-131.723 362.71C-209.347 499.527 -67.9129 730.505 184.18 878.614C436.272 1026.72 703.56 1035.88 781.185 899.06C858.809 762.243 717.375 531.264 465.282 383.155C213.19 235.046 -54.0985 225.892 -131.723 362.71ZM-93.4328 385.206C-167.758 516.209 -40.7929 732.402 190.152 868.087C421.098 1003.77 668.568 1007.57 742.894 876.564C817.22 745.561 690.254 529.368 459.309 393.683C228.364 257.998 -19.1073 254.203 -93.4328 385.206Z" fill="url(#paint1_linear)"/>
<defs>
<linearGradient id="paint0_linear" x1="1115.74" y1="-289.325" x2="158.2" y2="449.387" gradientUnits="userSpaceOnUse">
<stop stop-color="#3A60E4"/>
<stop offset="1" stop-color="#3A60E4" stop-opacity="0"/>
</linearGradient>
<linearGradient id="paint1_linear" x1="1244.12" y1="630.885" x2="-222.392" y2="630.885" gradientUnits="userSpaceOnUse">
<stop stop-color="#3A60E4"/>
<stop offset="1" stop-color="#3A60E4" stop-opacity="0"/>
</linearGradient>
</defs>
</svg>
