<svg width="91" height="26" viewBox="0 0 91 26" fill="none" xmlns="http://www.w3.org/2000/svg">
<path fill-rule="evenodd" clip-rule="evenodd" d="M45.5 0.00181496V0C45.4224 0 45.339 0 45.25 0.000269496C45.161 0 45.0776 0 45 0V0.00181496C42.0117 0.0309499 34.1481 0.527777 28.5 9C23.7283 16.1576 19.5 20 16 22C12.5002 23.9999 6.48666 24.856 2.33833 25H0C0.668647 25.0291 1.46186 25.0304 2.33833 25H45H45.5H88.1617C89.0381 25.0304 89.8314 25.0291 90.5 25H88.1617C84.0133 24.856 77.9998 23.9999 74.5 22C71 20 66.7717 16.1576 62 9C56.3519 0.527777 48.4883 0.0309499 45.5 0.00181496Z" fill="white"/>
</svg>
