<svg width="46" height="59" viewBox="0 0 46 59" fill="none" xmlns="http://www.w3.org/2000/svg">
<path opacity="0.6" d="M0 4C0 1.79086 1.79086 0 4 0H30C38.8366 0 46 7.16344 46 16V55C46 57.2091 44.2091 59 42 59H4C1.79086 59 0 57.2091 0 55V4Z" fill="#E2E9FF"/>
<path d="M15.912 37.6C16.704 37.6 17.376 37.872 17.928 38.416C18.48 38.96 18.756 39.616 18.756 40.384C18.756 41.16 18.48 41.82 17.928 42.364C17.376 42.908 16.704 43.18 15.912 43.18H14.436V46H12.78V37.6H14.436H15.912ZM15.912 41.632C16.248 41.632 16.528 41.512 16.752 41.272C16.984 41.032 17.1 40.736 17.1 40.384C17.1 40.032 16.984 39.74 16.752 39.508C16.528 39.268 16.248 39.148 15.912 39.148H14.436V41.632H15.912ZM23.4107 37.6C24.5627 37.6 25.5227 38.004 26.2907 38.812C27.0667 39.62 27.4547 40.616 27.4547 41.8C27.4547 42.984 27.0667 43.98 26.2907 44.788C25.5227 45.596 24.5627 46 23.4107 46H20.3747H19.8347V37.6H21.4907H23.4107ZM23.4107 44.416C24.1387 44.416 24.7307 44.176 25.1867 43.696C25.6427 43.208 25.8707 42.576 25.8707 41.8C25.8707 41.024 25.6427 40.396 25.1867 39.916C24.7307 39.428 24.1387 39.184 23.4107 39.184H21.4907V44.416H23.4107ZM33.5555 39.184H30.2915V41.32H33.4715V42.904H30.2915V46H28.6355V37.6H30.2915H33.5555V39.184Z" fill="#3A60E4"/>
</svg>
